# xmcd
#
# Track frame offsets: 
#        182
#        16692
#        33617
#        45947
#        65537
#        76885
#        91507
#        107375
#        114210
#        123172
#        125372
#        134877
#        141530
#        162747
#        175680
#        183822
#        198590
#        216377
#        230485
#        258390
#        275535
#
# Disc length: 3830 seconds
#
# Revision: 0
# Processed by: cddbd v1.5.2PL0 Copyright (c) Steve Scherf et al.
# Submitted via: ExactAudioCopy v0.99pb1
#
DISCID=230ef415
DTITLE=Bob Dylan - Possum Belly Overalls
DYEAR=1970
DGENRE=Singer-Songwriter
TTITLE0=Ghost Riders In The Sky
TTITLE1=Cupid
TTITLE2=All I Have To Do Is Dream
TTITLE3=Gates of Eden
TTITLE4=I Threw It All Away
TTITLE5=I Don't Believe You
TTITLE6=Matchbox
TTITLE7=True Love, Your Love
TTITLE8=Wonder When My Swamp's Gonna Catch On Fire
TTITLE9=I'm Goin' Fishing
TTITLE10=Honey Just Allow Me One More Chance
TTITLE11=Rainy Day Women
TTITLE12=Song To Woody
TTITLE13=Mama You've Been On My Mind
TTITLE14=Don't Think Twice (inst)
TTITLE15=Yesterday
TTITLE16=Just Like Tom Thumbs Blues
TTITLE17=Do Doo Ron Ron
TTITLE18=One Too Many Mornings
TTITLE19=Folsom Prison Blues
TTITLE20=Ring of Fire
EXTD=
EXTT0=
EXTT1=
EXTT2=
EXTT3=
EXTT4=
EXTT5=
EXTT6=
EXTT7=
EXTT8=
EXTT9=
EXTT10=
EXTT11=
EXTT12=
EXTT13=
EXTT14=
EXTT15=
EXTT16=
EXTT17=
EXTT18=
EXTT19=
EXTT20=
PLAYORDER=
